<svg width="95" height="95" viewBox="0 0 95 95" fill="none" xmlns="http://www.w3.org/2000/svg">
<path opacity="0.5" fill-rule="evenodd" clip-rule="evenodd" d="M55.1231 11.2589C69.4366 12.3212 79.7868 23.3615 84.3127 36.9128C88.9534 50.808 88.2826 66.8627 76.7185 75.9197C63.8221 86.0202 45.929 86.6891 32.2175 77.7138C16.1075 67.1685 2.28144 49.4374 8.53674 31.2892C14.6034 13.6881 36.472 9.87478 55.1231 11.2589Z" fill="#16261F"/>
<path d="M65.2941 32.0333L65.2051 32.2209L65.3731 32.3428C66.8139 33.3883 67.75 35.0848 67.75 37C67.75 40.1756 65.1756 42.75 62 42.75C60.7427 42.75 59.5804 42.3467 58.6342 41.6625L58.4716 41.545L58.3217 41.6782C57.571 42.3452 56.5831 42.75 55.5 42.75C53.1528 42.75 51.25 40.8472 51.25 38.5C51.25 38.3401 51.2588 38.1824 51.276 38.0274L51.3067 37.7499H51.0275L51.0121 37.7499L51 37.75C48.9289 37.75 47.25 36.071 47.25 34C47.25 32.2263 48.4818 30.7396 50.1369 30.3498L50.2965 30.3122L50.3256 30.1508C50.7258 27.9327 52.6667 26.25 55 26.25C55.8067 26.25 56.5658 26.4509 57.2306 26.8052L57.3998 26.8954L57.5308 26.7554C58.3979 25.8286 59.6312 25.25 61 25.25C63.6234 25.25 65.75 27.3766 65.75 30C65.75 30.728 65.5864 31.4173 65.2941 32.0333Z" fill="#16261F" stroke="#E2954E" stroke-width="0.5"/>
<path d="M27.4576 52.7498C25.1299 52.727 23.25 50.833 23.25 48.5C23.25 46.1523 25.1386 44.25 27.5 44.25H27.8419L27.7382 43.9242L27.7382 43.9242L27.7382 43.9242L27.7382 43.9241L27.738 43.9234L27.737 43.9203L27.733 43.9077L27.7176 43.8577C27.7043 43.8139 27.6851 43.75 27.662 43.6704C27.6158 43.5109 27.5543 43.2889 27.4928 43.0385C27.3681 42.5309 27.25 41.9314 27.25 41.5C27.25 39.1528 29.1528 37.25 31.5 37.25C33.3342 37.25 34.8976 38.4121 35.493 40.0409L35.6111 40.364L35.8819 40.1519C36.6036 39.5867 37.5121 39.25 38.5 39.25C39.9285 39.25 41.1924 39.9544 41.9633 41.0361L42.1254 41.2636L42.3336 41.0773C42.9088 40.5626 43.6676 40.25 44.5 40.25C46.2637 40.25 47.7196 42.0907 47.2575 43.9394L47.25 43.9692V44C47.25 44.0211 47.2297 44.1012 47.0921 44.2496C46.9634 44.3884 46.7652 44.5515 46.4984 44.7361C45.9663 45.1041 45.1976 45.5325 44.2635 45.998C42.3977 46.9277 39.9052 47.9894 37.4068 48.9929C34.9097 49.9959 32.4121 50.9388 30.5384 51.6311C29.6016 51.9772 28.821 52.2605 28.2746 52.4574C28.0015 52.5558 27.7869 52.6325 27.6406 52.6847L27.4738 52.7441L27.4576 52.7498Z" fill="#16261F" stroke="#E2954E" stroke-width="0.5"/>
<path d="M73.5 63C73.5 66.8829 70.7146 70.4983 65.992 73.1715C61.2845 75.8361 54.7477 77.5 47.5 77.5C40.2523 77.5 33.7155 75.8361 29.008 73.1715C24.2854 70.4983 21.5 66.8829 21.5 63C21.5 59.1171 24.2854 55.5017 29.008 52.8285C33.7155 50.1639 40.2523 48.5 47.5 48.5C54.7477 48.5 61.2845 50.1639 65.992 52.8285C70.7146 55.5017 73.5 59.1171 73.5 63Z" fill="#16261F" stroke="#E2954E"/>
<path d="M73.5 59C73.5 62.8829 70.7146 66.4983 65.992 69.1715C61.2845 71.8361 54.7477 73.5 47.5 73.5C40.2523 73.5 33.7155 71.8361 29.008 69.1715C24.2854 66.4983 21.5 62.8829 21.5 59C21.5 55.1171 24.2854 51.5017 29.008 48.8285C33.7155 46.1639 40.2523 44.5 47.5 44.5C54.7477 44.5 61.2845 46.1639 65.992 48.8285C70.7146 51.5017 73.5 55.1171 73.5 59Z" fill="#105C3C" stroke="#E2954E"/>
<path d="M53 69L54 68L55 69L56 68L57 69L58 68L59 69" stroke="#0A3322" stroke-width="0.5" stroke-linecap="round"/>
<path d="M24 58L25 57L26 58L27 57L28 58L29 57L30 58" stroke="#0A3322" stroke-width="0.5" stroke-linecap="round"/>
<path d="M47 47L48 46L49 47L50 46L51 47L52 46L53 47" stroke="#0A3322" stroke-width="0.5" stroke-linecap="round"/>
<path d="M59 49.5H54.5L55.5 38L51.5 34.5L56 36L57 30L58 39.5L63 35L58.5 41.5L59 49.5Z" fill="#A46010" stroke="#E2954E" stroke-width="0.5" stroke-linecap="round" stroke-linejoin="round"/>
<path d="M51.6394 50.1122C53.5216 51.2211 55.7555 52.25 58 52.25C61.0007 52.25 63.7052 52.9692 65.651 54.119C67.6024 55.2721 68.75 56.8293 68.75 58.5C68.75 60.1707 67.6024 61.7279 65.651 62.881C63.7052 64.0308 61.0007 64.75 58 64.75C57.8951 64.75 57.7905 64.7491 57.6863 64.7474C54.6498 64.6965 51.292 65.9647 48.5764 67.1876C46.4214 68.158 43.598 68.75 40.5 68.75C37.08 68.75 33.9962 68.0286 31.7765 66.8744C29.5445 65.7138 28.25 64.1544 28.25 62.5C28.25 60.9147 29.4379 59.4168 31.5044 58.2717C32.152 57.9129 32.5877 57.3032 32.8603 56.6274C33.133 55.9512 33.25 55.1916 33.25 54.5C33.25 52.8293 34.3976 51.2721 36.349 50.119C38.2948 48.9692 40.9993 48.25 44 48.25C46.9947 48.25 49.6944 48.9664 51.6394 50.1122Z" fill="#16261F" stroke="#E2954E" stroke-width="0.5"/>
<path d="M53 49.5H60.5" stroke="#E2954E" stroke-width="0.5" stroke-linecap="round"/>
<path d="M25 49C25 47 26 46 28 46" stroke="#E2954E" stroke-width="0.5" stroke-linecap="round"/>
<path d="M29 42C29 40 30 39 32 39" stroke="#E2954E" stroke-width="0.5" stroke-linecap="round"/>
<path d="M52 32C52 29.3333 53.3333 28 56 28" stroke="#E2954E" stroke-width="0.5" stroke-linecap="round"/>
<path d="M50.3536 35.7071C49.4512 34.8047 49.4512 33.9023 50.3536 33" stroke="#E2954E" stroke-width="0.5" stroke-linecap="round"/>
<path d="M38.5978 31.7353L38.4639 31.75H24.5391L24.4077 31.7359C23.1927 31.6056 22.25 30.5865 22.25 29.3529C22.25 28.0313 23.3321 26.9559 24.6719 26.9559C24.9579 26.9559 25.2318 27.0049 25.4859 27.0946L25.8516 27.2237L25.8182 26.8373C25.8144 26.794 25.8125 26.7502 25.8125 26.7059C25.8125 25.8715 26.4959 25.1912 27.3438 25.1912C27.7538 25.1912 28.1254 25.3502 28.4001 25.6093L28.9414 26.1197L28.8182 25.386C28.7939 25.2415 28.7812 25.0929 28.7812 24.9412C28.7812 23.457 29.9963 22.25 31.5 22.25C32.8295 22.25 33.9343 23.1942 34.1715 24.4388L34.2481 24.8405L34.5707 24.5893C35.0329 24.2294 35.6156 24.0147 36.25 24.0147C37.7537 24.0147 38.9688 25.2218 38.9688 26.7059C38.9688 26.7518 38.9676 26.7973 38.9653 26.8426L38.9559 27.0296L39.1327 27.0912C40.0763 27.4201 40.75 28.3099 40.75 29.3529C40.75 30.5847 39.8102 31.6025 38.5978 31.7353Z" fill="#A46010" stroke="#E2954E" stroke-width="0.5"/>
<path d="M39 53H45" stroke="#105C3C" stroke-width="0.5" stroke-linecap="round"/>
<path d="M37 58H43" stroke="#105C3C" stroke-width="0.5" stroke-linecap="round"/>
<path d="M39 63H45" stroke="#105C3C" stroke-width="0.5" stroke-linecap="round"/>
<path d="M56 58H62" stroke="#105C3C" stroke-width="0.5" stroke-linecap="round"/>
<path d="M47 53H49" stroke="#105C3C" stroke-width="0.5" stroke-linecap="round"/>
<path d="M45 58H47" stroke="#105C3C" stroke-width="0.5" stroke-linecap="round"/>
<path d="M49 63H51" stroke="#105C3C" stroke-width="0.5" stroke-linecap="round"/>
<path d="M53 58H55" stroke="#105C3C" stroke-width="0.5" stroke-linecap="round"/>
<path d="M33 63H35" stroke="#105C3C" stroke-width="0.5" stroke-linecap="round"/>
<path d="M55 61H57" stroke="#105C3C" stroke-width="0.5" stroke-linecap="round"/>
</svg>
