<svg width="95" height="95" viewBox="0 0 95 95" fill="none" xmlns="http://www.w3.org/2000/svg">
<path opacity="0.5" fill-rule="evenodd" clip-rule="evenodd" d="M52.4609 11.107C65.3222 12.103 70.1955 25.9807 74.33 38.0059C78.714 50.7568 84.556 65.6607 74.2677 74.5324C61.5097 85.5336 42.096 87.434 28.3466 77.6575C14.5022 67.8135 10.8754 49.3674 16.6117 33.5361C21.8695 19.0257 36.8535 9.89837 52.4609 11.107Z" fill="#16261F"/>
<g clip-path="url(#clip0_33858_1529)">
<path d="M19.5552 39.9063C18.2552 36.2655 20.1528 32.2601 23.7937 30.9601L38.8619 25.5798C42.5028 24.2798 46.5081 26.1774 47.8082 29.8183L56.5512 54.3042C57.8512 57.945 55.9535 61.9504 52.3127 63.2504L37.2444 68.6307C33.6036 69.9307 29.5982 68.0331 28.2982 64.3922L19.5552 39.9063Z" fill="#16261F"/>
<path fill-rule="evenodd" clip-rule="evenodd" d="M39.1982 26.5215L24.1299 31.9018C21.0092 33.0161 19.3826 36.4493 20.4969 39.5701L29.2399 64.056C30.3542 67.1767 33.7874 68.8033 36.9081 67.689L51.9764 62.3087C55.0971 61.1944 56.7237 57.7612 55.6094 54.6404L46.8664 30.1545C45.7521 27.0338 42.3189 25.4072 39.1982 26.5215ZM23.7937 30.9601C20.1528 32.2601 18.2552 36.2655 19.5552 39.9063L28.2982 64.3922C29.5982 68.0331 33.6036 69.9307 37.2444 68.6307L52.3127 63.2504C55.9535 61.9504 57.8512 57.945 56.5512 54.3042L47.8082 29.8183C46.5081 26.1774 42.5028 24.2798 38.8619 25.5798L23.7937 30.9601Z" fill="#E2954E"/>
<path d="M22.7167 39.8393C21.7882 37.2387 23.1436 34.3777 25.7442 33.4491L38.929 28.7414C41.5296 27.8128 44.3905 29.1683 45.3191 31.7689L53.3896 54.3713C54.3182 56.9719 52.9627 59.8328 50.3621 60.7614L37.1774 65.4692C34.5768 66.3978 31.7158 65.0423 30.7872 62.4417L22.7167 39.8393Z" fill="#16261F"/>
<path fill-rule="evenodd" clip-rule="evenodd" d="M25.5761 32.9783L38.7609 28.2705C41.6215 27.2491 44.7686 28.7401 45.7901 31.6007L53.8605 54.2031C54.8819 57.0638 53.391 60.2109 50.5303 61.2323L37.3456 65.9401C34.4849 66.9615 31.3378 65.4705 30.3164 62.6099L22.2459 40.0075C21.2245 37.1468 22.7155 33.9997 25.5761 32.9783ZM25.7443 33.4492C23.1437 34.3777 21.7882 37.2387 22.7168 39.8393L30.7872 62.4417C31.7158 65.0423 34.5768 66.3978 37.1774 65.4692L50.3621 60.7614C52.9628 59.8329 54.3182 56.9719 53.3896 54.3713L45.3192 31.7689C44.3906 29.1683 41.5296 27.8128 38.929 28.7414L25.7443 33.4492Z" fill="#E2954E"/>
<path d="M38.0532 47.1054L35.0257 53.4956L41.4159 56.5231L44.4434 50.1329L38.0532 47.1054Z" fill="#0A3322"/>
<path fill-rule="evenodd" clip-rule="evenodd" d="M25.7441 33.4492C23.1436 34.3778 21.7882 37.2387 22.7168 39.8393L25.2729 41.0504L24.0619 43.6064L26.0795 49.2571L28.6355 50.4681L27.4246 53.0241L29.4422 58.6748L31.9983 59.8858L30.7873 62.4418C31.7159 65.0423 34.5768 66.3978 37.1774 65.4692L38.3884 62.9133L40.9443 64.1242L46.5952 62.1064L47.8061 59.5506L50.362 60.7615C52.9626 59.8329 54.3182 56.972 53.3897 54.3714L50.8336 53.1604L52.0446 50.6043L50.027 44.9537L47.4709 43.7427L48.6819 41.1866L46.6643 35.536L44.1082 34.325L45.3192 31.769C44.3906 29.1684 41.5297 27.8128 38.9291 28.7413L37.7181 31.2976L35.1618 30.0865L29.5114 32.104L28.3004 34.6603L25.7441 33.4492ZM34.6905 37.6877L37.7181 31.2976L44.1082 34.325L41.0807 40.7152L34.6905 37.6877ZM31.6631 44.0779L34.6905 37.6877L28.3004 34.6603L25.2729 41.0504L31.6631 44.0779ZM38.0532 47.1054L31.6631 44.0779L28.6355 50.4681L35.0257 53.4956L31.9983 59.8858L38.3884 62.9133L41.4159 56.5231L47.8061 59.5506L50.8336 53.1604L44.4434 50.1329L47.4709 43.7427L41.0807 40.7152L38.0532 47.1054Z" fill="#0A3322"/>
<path fill-rule="evenodd" clip-rule="evenodd" d="M35.4949 29.9676L37.5992 30.9646L38.5962 28.8603L38.929 28.7414C39.0373 28.7027 39.1461 28.668 39.2551 28.6372L38.051 31.1787L43.9893 33.992L45.1934 31.4507C45.2386 31.5546 45.2806 31.6606 45.3192 31.7689L45.4381 32.1019L44.4412 34.2061L46.5454 35.203L46.7832 35.869L44.2271 34.658L41.4137 40.5963L47.352 43.4097L48.563 40.8537L48.8008 41.5196L47.8039 43.6238L49.9081 44.6207L50.1459 45.2866L47.5898 44.0756L44.7764 50.014L50.7147 52.8274L51.9257 50.2714L52.1635 50.9373L51.1666 53.0415L53.2708 54.0384L53.3897 54.3713C53.4283 54.4796 53.463 54.5883 53.4939 54.6974L50.9525 53.4933L48.1391 59.4317L50.6803 60.6356C50.5765 60.6808 50.4704 60.7228 50.3622 60.7614L50.0291 60.8804L47.925 59.8835L46.9282 61.9876L46.2623 62.2254L47.4732 59.6694L41.5349 56.856L38.7214 62.7944L41.2774 64.0053L40.6114 64.2431L38.5074 63.2462L37.5105 65.3503L37.1775 65.4692C37.0692 65.5079 36.9605 65.5426 36.8515 65.5734L38.0555 63.0321L32.1172 60.2187L30.9132 62.76C30.868 62.6561 30.8259 62.55 30.7873 62.4417L30.6684 62.1088L31.6653 60.0047L29.5611 59.0077L29.3234 58.3418L31.8794 59.5528L34.6928 53.6145L28.7545 50.801L27.5435 53.3571L27.3057 52.6911L28.3026 50.5869L26.1984 49.59L25.9607 48.9241L28.5167 50.1351L31.3301 44.1968L25.3918 41.3834L24.1808 43.9394L23.943 43.2735L24.9399 41.1693L22.8357 40.1724L22.7168 39.8393C22.6782 39.7311 22.6435 39.6224 22.6127 39.5134L25.154 40.7174L27.9674 34.7792L25.426 33.5751C25.5299 33.5299 25.636 33.4878 25.7443 33.4492L26.0772 33.3303L28.1815 34.3273L29.1785 32.223L29.8444 31.9852L28.6334 34.5414L34.5717 37.3547L37.3851 31.4165L34.8289 30.2054L35.4949 29.9676ZM37.837 31.6305L35.0235 37.5688L40.9619 40.3823L43.7753 34.4439L37.837 31.6305ZM28.4193 34.9932L34.3576 37.8066L31.5442 43.745L25.6059 40.9315L28.4193 34.9932ZM34.8095 38.0207L31.996 43.959L37.9344 46.7724L40.7478 40.8341L34.8095 38.0207ZM31.782 44.4109L28.9685 50.3492L34.9069 53.1626L37.7203 47.2242L31.782 44.4109ZM32.3313 59.7669L35.1447 53.8286L41.083 56.642L38.2696 62.5803L32.3313 59.7669ZM41.7489 56.4042L47.6873 59.2176L50.5007 53.2793L44.5623 50.4659L41.7489 56.4042ZM47.138 43.8615L44.3246 49.7999L38.3862 46.9865L41.1997 41.0482L47.138 43.8615ZM35.3587 53.3767L38.1722 47.4383L44.1105 50.2518L41.2971 56.1901L35.3587 53.3767Z" fill="#E2954E"/>
</g>
<path d="M46.5972 29.847C47.401 26.0655 51.1181 23.6516 54.8996 24.4554L70.55 27.782C74.3315 28.5858 76.7454 32.3029 75.9417 36.0844L70.536 61.5162C69.7322 65.2977 66.0151 67.7117 62.2335 66.9079L46.5832 63.5813C42.8017 62.7775 40.3877 59.0604 41.1915 55.2789L46.5972 29.847Z" fill="#16261F"/>
<path fill-rule="evenodd" clip-rule="evenodd" d="M70.3421 28.7601L54.6917 25.4335C51.4504 24.7446 48.2643 26.8136 47.5754 30.0549L42.1697 55.4868C41.4807 58.7281 43.5498 61.9142 46.7911 62.6031L62.4415 65.9297C65.6827 66.6187 68.8688 64.5496 69.5578 61.3083L74.9635 35.8765C75.6525 32.6352 73.5834 29.4491 70.3421 28.7601ZM54.8996 24.4554C51.1181 23.6516 47.401 26.0655 46.5972 29.847L41.1915 55.2789C40.3877 59.0604 42.8017 62.7775 46.5832 63.5813L62.2335 66.9079C66.0151 67.7117 69.7322 65.2977 70.536 61.5162L75.9417 36.0844C76.7454 32.3029 74.3315 28.5858 70.55 27.782L54.8996 24.4554Z" fill="#E2954E"/>
<path d="M49.3238 31.449C49.8979 28.7479 52.553 27.0237 55.2541 27.5978L68.9481 30.5085C71.6492 31.0827 73.3735 33.7378 72.7993 36.4388L67.8094 59.9144C67.2353 62.6155 64.5802 64.3397 61.8791 63.7656L48.1851 60.8548C45.484 60.2807 43.7598 57.6256 44.3339 54.9245L49.3238 31.449Z" fill="#16261F"/>
<path fill-rule="evenodd" clip-rule="evenodd" d="M68.8442 30.9976L55.1501 28.0869C52.7192 27.5701 50.3296 29.122 49.8129 31.5529L44.823 55.0285C44.3063 57.4594 45.8581 59.849 48.289 60.3657L61.9831 63.2765C64.4141 63.7932 66.8037 62.2414 67.3204 59.8104L72.3103 36.3349C72.827 33.9039 71.2752 31.5143 68.8442 30.9976ZM55.2541 27.5978C52.553 27.0237 49.8979 28.7479 49.3238 31.449L44.3339 54.9245C43.7598 57.6256 45.484 60.2807 48.1851 60.8548L61.8791 63.7656C64.5802 64.3397 67.2353 62.6155 67.8094 59.9144L72.7993 36.4388C73.3735 33.7378 71.6492 31.0827 68.9481 30.5085L55.2541 27.5978Z" fill="#E2954E"/>
<path d="M56.6043 48.7945C56.0548 49.0301 55.4298 49.1043 54.8005 48.9705C53.1799 48.626 52.1453 47.033 52.4898 45.4123C52.8343 43.7917 54.4273 42.7572 56.048 43.1016C56.1046 43.1137 56.1605 43.1272 56.2156 43.1423C56.1717 42.8117 56.1826 42.4682 56.2559 42.1235C56.6004 40.5028 58.1934 39.4683 59.8141 39.8128C61.4347 40.1573 62.4693 41.7503 62.1248 43.371C62.0515 43.7157 61.9217 44.0339 61.7472 44.318C61.8037 44.3267 61.8603 44.3371 61.9169 44.3491C63.5375 44.6936 64.5721 46.2866 64.2276 47.9073C63.8831 49.5279 62.2901 50.5625 60.6694 50.218C60.0402 50.0842 59.4993 49.7623 59.0932 49.3235L59.2754 51.9664L55.3628 51.1347L56.6043 48.7945Z" fill="#E2954E"/>
<path d="M62.6941 59.7867C62.4651 59.8849 62.2047 59.9158 61.9425 59.86C61.2672 59.7165 60.8362 59.0527 60.9797 58.3775C61.1232 57.7022 61.787 57.2711 62.4623 57.4147C62.4859 57.4197 62.5092 57.4253 62.5321 57.4316C62.5139 57.2939 62.5184 57.1508 62.5489 57.0071C62.6924 56.3318 63.3562 55.9008 64.0315 56.0443C64.7068 56.1878 65.1378 56.8516 64.9943 57.5269C64.9638 57.6705 64.9097 57.8031 64.837 57.9215C64.8605 57.9251 64.8841 57.9294 64.9077 57.9345C65.5829 58.078 66.014 58.7418 65.8704 59.417C65.7269 60.0923 65.0631 60.5234 64.3879 60.3798C64.1257 60.3241 63.9003 60.1899 63.7311 60.0071L63.8071 61.1083L62.1768 60.7618L62.6941 59.7867Z" fill="#E2954E"/>
<path d="M52.3305 33.6215C52.438 33.6444 52.5486 33.599 52.609 33.5071L52.7241 33.332C52.8539 33.1346 53.0915 33.037 53.3226 33.0861L54.1407 33.26C54.3718 33.3091 54.5492 33.4949 54.5874 33.7281L54.6211 33.9333C54.6391 34.0427 54.7224 34.1299 54.8308 34.153C55.0167 34.1925 55.1839 34.0322 55.1523 33.8448L54.6391 30.8074C54.6102 30.6363 54.4797 30.5002 54.31 30.4641C54.1403 30.428 53.9657 30.4993 53.8697 30.6438L52.1636 33.2128C52.0594 33.3697 52.1462 33.5823 52.3305 33.6215ZM53.2142 32.5774L54.152 31.1584C54.1545 31.1546 54.159 31.1527 54.1634 31.1537C54.1678 31.1546 54.1712 31.1582 54.172 31.1627L54.4466 32.8394L53.2142 32.5774Z" fill="#E2954E"/>
<defs>
<clipPath id="clip0_33858_1529">
<rect width="30.0019" height="40.512" fill="white" transform="translate(17 33.1497) rotate(-19.6497)"/>
</clipPath>
</defs>
</svg>
