<svg width="95" height="95" viewBox="0 0 95 95" fill="none" xmlns="http://www.w3.org/2000/svg">
<path opacity="0.5" fill-rule="evenodd" clip-rule="evenodd" d="M48.1564 12.0018C61.3357 12.1396 72.1361 21.0473 76.7581 33.278C82.2236 47.7406 84.087 65.247 71.9296 74.9099C58.2631 85.7722 38.1682 85.6237 24.3894 74.9015C11.8799 65.167 12.0582 47.4205 17.6355 32.6601C22.4118 20.0197 34.5359 11.8595 48.1564 12.0018Z" fill="#16261F"/>
<g clip-path="url(#clip0_33858_1547)">
<path d="M36.2354 41.0156C38.3833 38.8677 44.0818 41.0838 48.9633 45.9653C53.8449 50.8469 56.061 56.5454 53.9131 58.6933C51.7652 60.8411 23.5075 71.4212 23.5075 71.4212C23.5075 71.4212 34.0875 43.1635 36.2354 41.0156Z" fill="#0A3322"/>
<path d="M39.0638 43.8439L45.4278 50.2079L23.5075 71.4211L39.0638 43.8439Z" fill="#105C3C"/>
<path d="M36.2354 41.0155C38.3833 38.8676 44.0818 41.0837 48.9633 45.9653C53.8449 50.8468 56.061 56.5453 53.9131 58.6932C51.7652 60.8411 46.0667 58.625 41.1852 53.7434C36.3036 48.8619 34.0875 43.1634 36.2354 41.0155Z" fill="#16261F"/>
<path fill-rule="evenodd" clip-rule="evenodd" d="M53.7586 60.0316C54.0656 59.8711 54.3512 59.6666 54.6075 59.4129C54.6118 59.4087 54.616 59.4045 54.6202 59.4003C55.3897 58.6308 55.7106 57.5951 55.7321 56.5045C55.7535 55.4208 55.4841 54.2207 55.0063 52.9919C54.0494 50.5315 52.1857 47.7733 49.6705 45.2582C47.1553 42.743 44.3972 40.8792 41.9367 39.9223C40.7079 39.4445 39.5078 39.1751 38.4241 39.1965C37.3335 39.218 36.2979 39.5389 35.5283 40.3084C35.2685 40.5683 35.0598 40.8584 34.8965 41.1708C34.8915 41.179 34.8866 41.1873 34.8816 41.1955C34.6687 41.5494 34.4327 41.9868 34.1795 42.4873C33.6726 43.4894 33.0747 44.7886 32.4247 46.271C31.1238 49.2383 29.5948 52.9846 28.1367 56.6545C26.6778 60.3264 25.2865 63.9301 24.2601 66.6152C23.7469 67.958 23.3247 69.0714 23.0309 69.8493C22.8839 70.2383 22.769 70.5433 22.6908 70.7513L21.8007 73.128L24.1773 72.2378C24.3853 72.1596 24.6904 72.0447 25.0793 71.8978C25.8572 71.6039 26.9707 71.1817 28.3134 70.6685C30.9985 69.6421 34.6022 68.2508 38.2741 66.7919C41.9441 65.3338 45.6904 63.8049 48.6576 62.5039C50.14 61.854 51.4392 61.256 52.4413 60.7491C52.9418 60.4959 53.3792 60.2599 53.7332 60.047C53.7417 60.0419 53.7502 60.0367 53.7586 60.0316ZM53.9048 58.7014C53.7771 58.8265 53.5626 58.9797 53.2718 59.1573C50.7758 60.4335 45.6403 58.1985 41.1852 53.7434C40.7204 53.2787 40.2799 52.8066 39.8649 52.3308L38.193 50.2029C35.8083 46.8059 34.8258 43.5073 35.7709 41.6575C35.9525 41.36 36.1087 41.1423 36.2354 41.0155C38.3833 38.8676 44.0818 41.0837 48.9634 45.9653C53.8449 50.8468 56.061 56.5453 53.9131 58.6932C53.9104 58.6959 53.9076 58.6986 53.9048 58.7014ZM34.4695 44.1772C31.6727 50.1164 26.8768 62.5467 24.6749 68.3339L35.8297 48.2372C35.5651 47.7212 35.3352 47.213 35.1422 46.7168C34.8034 45.8454 34.5694 44.9885 34.4695 44.1772ZM36.209 48.94L23.5075 71.4211L40.6568 54.6277C40.5971 54.569 40.5375 54.51 40.4781 54.4505C38.699 52.6715 37.2458 50.7708 36.209 48.94ZM41.1627 55.1136L24.6844 70.978L24.7522 70.9523C29.1521 69.2899 44.0653 63.6077 50.7515 60.4591C49.9402 60.3592 49.0832 60.1252 48.2118 59.7863C45.9728 58.9156 43.4873 57.2938 41.1627 55.1136Z" fill="#E2954E"/>
<path fill-rule="evenodd" clip-rule="evenodd" d="M34.5672 33.5922C34.8009 32.7974 35.6347 32.3426 36.4295 32.5764C38.1387 33.0791 40.4616 34.4153 42.1465 36.8162C43.8654 39.2655 44.8505 42.7243 43.9797 47.2961C43.8247 48.1099 43.0393 48.6439 42.2256 48.4889C41.4118 48.3339 40.8777 47.5485 41.0327 46.7347C41.7619 42.9066 40.9137 40.282 39.6909 38.5396C38.4342 36.7488 36.707 35.7851 35.583 35.4545C34.7882 35.2207 34.3334 34.3869 34.5672 33.5922Z" fill="#A46010"/>
<path fill-rule="evenodd" clip-rule="evenodd" d="M47.464 53.5183C46.9042 52.9076 46.9455 51.9588 47.5561 51.399C50.5506 48.6539 58.5215 45.8939 68.2479 53.0981C68.9136 53.5912 69.0535 54.5306 68.5604 55.1963C68.0674 55.862 67.128 56.002 66.4623 55.5089C57.8278 49.1134 51.4621 51.8881 49.5834 53.6104C48.9727 54.1702 48.0238 54.129 47.464 53.5183Z" fill="#105C3C"/>
<path fill-rule="evenodd" clip-rule="evenodd" d="M51.4054 38.9115C51.4848 38.1575 52.1604 37.6105 52.9145 37.6899C55.0456 37.9142 56.1625 37.7972 56.7334 37.596C56.9882 37.5061 57.0884 37.4149 57.1316 37.366C57.1771 37.3144 57.2304 37.229 57.2772 37.0498C57.3279 36.8553 57.3579 36.604 57.38 36.2412C57.3862 36.14 57.3921 36.02 57.3984 35.8893C57.4117 35.6172 57.4273 35.2992 57.4524 35.0107C57.533 34.0838 57.7392 32.9408 58.5181 31.8504C59.2475 30.8292 60.1104 30.2256 61.0894 30.0015C62.0133 29.79 62.87 29.9609 63.4838 30.1159C63.7361 30.1796 63.9362 30.2351 64.1036 30.2815C64.4262 30.3709 64.627 30.4266 64.8449 30.4425C64.8973 30.4463 64.9302 30.4449 64.9482 30.4432C64.9537 30.4374 64.961 30.4292 64.9701 30.4178C65.1868 30.147 65.348 29.6864 65.4547 28.9196C65.5055 28.5543 65.5382 28.1719 65.5743 27.7507L65.5753 27.7394C65.6104 27.3291 65.6493 26.8757 65.7138 26.4407C65.8341 25.6289 66.0828 24.532 66.9136 23.7661C67.8285 22.9227 69.0728 22.7932 70.4302 23.0646C71.1737 23.2133 71.6559 23.9366 71.5072 24.6801C71.3585 25.4237 70.6352 25.9058 69.8917 25.7571C68.9674 25.5723 68.7777 25.7817 68.7747 25.785L68.7747 25.785C68.6902 25.8629 68.5385 26.1104 68.43 26.8431C68.38 27.1803 68.3474 27.5492 68.3111 27.9737L68.3075 28.0159C68.2734 28.4144 68.2352 28.8597 68.1743 29.298C68.0521 30.1759 67.8129 31.2598 67.1143 32.1331C66.79 32.5384 66.3902 32.8389 65.9218 33.0143C65.4664 33.1849 65.0229 33.2085 64.6453 33.181C64.135 33.1438 63.5387 32.9781 63.1153 32.8604C62.9993 32.8282 62.8962 32.7996 62.8115 32.7782C62.2927 32.6472 61.9652 32.6179 61.7021 32.6781C61.4941 32.7257 61.1672 32.8657 60.7525 33.4463C60.3873 33.9576 60.2503 34.5308 60.1879 35.2485C60.1667 35.4924 60.1566 35.7049 60.1455 35.9379C60.1386 36.0825 60.1313 36.2351 60.1208 36.4081C60.0964 36.8086 60.055 37.2795 59.9341 37.7429C59.8092 38.2215 59.5908 38.7296 59.1894 39.1839C58.7857 39.6409 58.2637 39.968 57.6462 40.1856C56.4723 40.5994 54.8434 40.6539 52.627 40.4206C51.8729 40.3412 51.326 39.6656 51.4054 38.9115ZM64.9357 30.4549C64.9357 30.4549 64.9363 30.4544 64.9375 30.4535C64.9363 30.4545 64.9357 30.4549 64.9357 30.4549Z" fill="#105C3C"/>
<path fill-rule="evenodd" clip-rule="evenodd" d="M55.0128 59.7308C55.8042 59.4857 56.6444 59.9286 56.8894 60.7199C57.4792 62.6244 57.9792 63.5002 58.3275 63.8786C58.4776 64.0417 58.5623 64.0706 58.579 64.0761C58.5994 64.0828 58.6563 64.0983 58.8029 64.0761C58.9666 64.0514 59.1769 63.9907 59.4935 63.8772C59.5777 63.847 59.68 63.8089 59.7926 63.767C60.033 63.6775 60.3207 63.5704 60.5812 63.4846C61.4219 63.2074 62.5222 62.9509 63.7997 63.23C64.9863 63.4892 65.8724 64.032 66.462 64.8403C67.0152 65.5987 67.1901 66.4397 67.2842 67.0311C67.3258 67.2927 67.3529 67.4929 67.3747 67.6545C67.412 67.9306 67.434 68.094 67.4876 68.2581C67.7439 68.3066 68.1368 68.2767 68.7627 68.1055C69.0892 68.0162 69.4246 67.9051 69.8018 67.7802L69.8086 67.778C70.1724 67.6575 70.5822 67.5219 70.9867 67.4151C71.7337 67.2179 72.8314 67.0082 73.8678 67.472C75.0185 67.987 75.6145 69.0869 75.8882 70.3852C76.0591 71.1958 75.5405 71.9915 74.7299 72.1624C73.9193 72.3333 73.1237 71.8147 72.9528 71.0041C72.8657 70.5913 72.7624 70.378 72.6979 70.2796C72.6677 70.2336 72.648 70.2155 72.6435 70.2117C72.6427 70.2109 72.642 70.2103 72.6415 70.21C72.614 70.1983 72.4086 70.1425 71.7525 70.3157C71.4524 70.3949 71.1303 70.5005 70.7516 70.6259L70.7124 70.6389C70.3591 70.7559 69.9582 70.8887 69.554 70.9992C68.7473 71.2199 67.6813 71.4273 66.6158 71.1329C66.1141 70.9943 65.6737 70.7428 65.3213 70.3747C64.9795 70.0175 64.7822 69.6152 64.6599 69.2611C64.4958 68.7857 64.4138 68.176 64.3594 67.7712C64.3452 67.6658 64.3329 67.5743 64.3215 67.5026C64.2442 67.0169 64.155 66.7683 64.0383 66.6083C63.958 66.4982 63.7682 66.2939 63.1595 66.1609C62.6418 66.0478 62.1434 66.1284 61.5205 66.3337C61.3066 66.4042 61.1274 66.4712 60.9269 66.5462C60.8 66.5937 60.6645 66.6443 60.5063 66.701C60.1508 66.8285 59.7152 66.9723 59.2513 67.0424C58.7704 67.1151 58.218 67.1158 57.6399 66.9253C57.0581 66.7336 56.555 66.3826 56.1203 65.9104C55.2989 65.0182 54.6412 63.6013 54.0237 61.6074C53.7786 60.816 54.2215 59.9758 55.0128 59.7308Z" fill="#A46010"/>
<path fill-rule="evenodd" clip-rule="evenodd" d="M33.4604 22.1194C33.9552 22.7839 33.8177 23.7236 33.1532 24.2184C31.5542 25.4092 30.8951 26.1725 30.6544 26.627C30.5507 26.8229 30.5517 26.9123 30.5521 26.9299C30.5525 26.9514 30.5569 27.0102 30.6267 27.1411C30.7045 27.2871 30.8319 27.4652 31.0444 27.7258C31.101 27.7952 31.1709 27.8789 31.248 27.9711C31.4125 28.168 31.6093 28.4035 31.7771 28.6205C32.3186 29.3208 32.9271 30.2727 33.0898 31.5702C33.2409 32.7753 33.0244 33.7916 32.4589 34.6169C31.9282 35.3913 31.1936 35.8364 30.6674 36.1223C30.4346 36.2487 30.2548 36.3409 30.1097 36.4154C29.8619 36.5425 29.7152 36.6178 29.5783 36.723C29.6181 36.9808 29.7772 37.3412 30.1472 37.8743C30.3402 38.1524 30.5567 38.4317 30.8002 38.7456L30.8046 38.7513C31.0394 39.0542 31.3039 39.3953 31.5394 39.7411C31.9742 40.3796 32.5378 41.3446 32.4459 42.4764C32.3439 43.7329 31.5055 44.6615 30.3727 45.3523C29.6654 45.7836 28.7424 45.5598 28.3111 44.8525C27.8798 44.1452 28.1035 43.2222 28.8108 42.7909C29.171 42.5713 29.3376 42.4028 29.4089 42.3092C29.4423 42.2654 29.4527 42.2407 29.4549 42.2353C29.4553 42.2342 29.4556 42.2333 29.4558 42.2328C29.4576 42.203 29.4418 41.9907 29.0598 41.4298C28.8851 41.1733 28.6782 40.9048 28.4337 40.5895L28.4084 40.5569C28.1804 40.2629 27.9215 39.9291 27.6826 39.5849C27.2058 38.8978 26.6549 37.9619 26.5773 36.8592C26.5408 36.34 26.6311 35.841 26.8608 35.386C27.0836 34.9447 27.3972 34.6246 27.6902 34.3913C28.0838 34.0781 28.6313 33.7976 28.9948 33.6113C29.0895 33.5628 29.1716 33.5207 29.2354 33.4861C29.6675 33.2514 29.8722 33.0845 29.9842 32.9211C30.0612 32.8087 30.1906 32.5616 30.1131 31.9434C30.0472 31.4175 29.8051 30.9745 29.4039 30.4557C29.2661 30.2775 29.1432 30.1309 29.0058 29.9669C28.9187 29.863 28.8258 29.7521 28.7195 29.6219C28.4809 29.3292 28.2002 28.9665 27.9794 28.5524C27.7506 28.1232 27.5658 27.6027 27.5528 26.9942C27.5397 26.3817 27.7028 25.7904 28.0032 25.2232C28.5706 24.1514 29.6872 23.059 31.3614 21.8123C32.0258 21.3175 32.9656 21.455 33.4604 22.1194Z" fill="#0A3322"/>
<path d="M46.6686 26.1265C46.6686 27.7833 45.3255 29.1265 43.6686 29.1265C42.0118 29.1265 40.6686 27.7833 40.6686 26.1265C40.6686 24.4696 42.0118 23.1265 43.6686 23.1265C45.3255 23.1265 46.6686 24.4696 46.6686 26.1265Z" fill="#105C3C"/>
<path d="M61.6686 55.6265C61.6686 57.0072 60.5494 58.1265 59.1686 58.1265C57.7879 58.1265 56.6686 57.0072 56.6686 55.6265C56.6686 54.2458 57.7879 53.1265 59.1686 53.1265C60.5494 53.1265 61.6686 54.2458 61.6686 55.6265Z" fill="#0A3322"/>
<path d="M25.6686 38.1265C25.6686 39.7833 24.3255 41.1265 22.6686 41.1265C21.0118 41.1265 19.6686 39.7833 19.6686 38.1265C19.6686 36.4696 21.0118 35.1265 22.6686 35.1265C24.3255 35.1265 25.6686 36.4696 25.6686 38.1265Z" fill="#A46010"/>
<path d="M71.6686 45.6265C71.6686 47.0072 70.5494 48.1265 69.1686 48.1265C67.7879 48.1265 66.6686 47.0072 66.6686 45.6265C66.6686 44.2458 67.7879 43.1265 69.1686 43.1265C70.5494 43.1265 71.6686 44.2458 71.6686 45.6265Z" fill="#A46010"/>
<path d="M49.6686 37.1265C49.6686 38.231 48.7732 39.1265 47.6686 39.1265C46.5641 39.1265 45.6686 38.231 45.6686 37.1265C45.6686 36.0219 46.5641 35.1265 47.6686 35.1265C48.7732 35.1265 49.6686 36.0219 49.6686 37.1265Z" fill="#A46010"/>
<path d="M64.6686 43.1265C64.6686 44.231 63.7732 45.1265 62.6686 45.1265C61.5641 45.1265 60.6686 44.231 60.6686 43.1265C60.6686 42.0219 61.5641 41.1265 62.6686 41.1265C63.7732 41.1265 64.6686 42.0219 64.6686 43.1265Z" fill="#105C3C"/>
<path d="M73.6686 60.1265C73.6686 61.231 72.7732 62.1265 71.6686 62.1265C70.5641 62.1265 69.6686 61.231 69.6686 60.1265C69.6686 59.0219 70.5641 58.1265 71.6686 58.1265C72.7732 58.1265 73.6686 59.0219 73.6686 60.1265Z" fill="#105C3C"/>
</g>
<defs>
<clipPath id="clip0_33858_1547">
<rect width="58" height="58" fill="white" transform="translate(18.8343 18.5632)"/>
</clipPath>
</defs>
</svg>
