<svg width="95" height="95" viewBox="0 0 95 95" fill="none" xmlns="http://www.w3.org/2000/svg">
<path opacity="0.5" fill-rule="evenodd" clip-rule="evenodd" d="M39.708 13.4215C55.9183 12.0549 75.1567 13.2746 81.2463 28.3778C88.3514 45.9997 81.2101 66.7653 65.5398 77.4884C51.0268 87.4195 31.5083 83.0257 18.2145 71.51C7.72458 62.423 10.4489 46.9631 15.2676 33.94C19.3509 22.9044 27.9952 14.4089 39.708 13.4215Z" fill="#16261F"/>
<path d="M33 33C33 24.7157 39.7157 18 48 18C54.8227 18 60.8163 22.4227 62.5181 28.7914C63.0528 30.7922 61.3211 32.5 59.25 32.5L-nan -nanL59.25 32.5C57.1789 32.5 55.5952 30.7113 54.5778 28.9074C53.21 26.4823 50.4823 25 47.5 25C43.3579 25 40 28.3579 40 32.5C40 36.6421 43.3579 40 47.5 40H56C59.866 40 63 43.134 63 47V62C63 70.2843 56.2843 77 48 77C39.7157 77 33 70.2843 33 62V33Z" fill="#16261F"/>
<path fill-rule="evenodd" clip-rule="evenodd" d="M62 62V47C62 43.6863 59.3137 41 56 41H47.5C42.8056 41 39 37.1944 39 32.5C39 27.8056 42.8056 24 47.5 24C50.8021 24 53.8844 25.6425 55.4488 28.4161C55.9235 29.2577 56.5063 30.0503 57.1709 30.622C57.83 31.189 58.5211 31.5 59.25 31.5C60.0163 31.5 60.6973 31.1825 61.1264 30.7177C61.5423 30.2672 61.7223 29.6868 61.552 29.0495C59.9743 23.1452 54.3982 19 48 19C40.268 19 34 25.268 34 33V62C34 69.732 40.268 76 48 76C55.732 76 62 69.732 62 62ZM48 18C39.7157 18 33 24.7157 33 33V62C33 70.2843 39.7157 77 48 77C56.2843 77 63 70.2843 63 62V47C63 43.134 59.866 40 56 40H47.5C43.3579 40 40 36.6421 40 32.5C40 28.3579 43.3579 25 47.5 25C50.4823 25 53.21 26.4823 54.5778 28.9074C55.5952 30.7113 57.1789 32.5 59.25 32.5C61.3211 32.5 63.0528 30.7922 62.5181 28.7914C60.8163 22.4227 54.8227 18 48 18Z" fill="#E2954E"/>
<path d="M58 62C58 67.5228 53.5228 72 48 72C42.4772 72 38 67.5228 38 62C38 56.4772 42.4772 52 48 52C53.5228 52 58 56.4772 58 62Z" fill="#0A3322"/>
<path fill-rule="evenodd" clip-rule="evenodd" d="M48 71.5C53.2467 71.5 57.5 67.2467 57.5 62C57.5 56.7533 53.2467 52.5 48 52.5C42.7533 52.5 38.5 56.7533 38.5 62C38.5 67.2467 42.7533 71.5 48 71.5ZM48 72C53.5228 72 58 67.5228 58 62C58 56.4772 53.5228 52 48 52C42.4772 52 38 56.4772 38 62C38 67.5228 42.4772 72 48 72Z" fill="#E2954E"/>
<path d="M56 62C56 66.4183 52.4183 70 48 70C43.5817 70 40 66.4183 40 62C40 57.5817 43.5817 54 48 54C52.4183 54 56 57.5817 56 62Z" fill="#16261F"/>
<path fill-rule="evenodd" clip-rule="evenodd" d="M48 69.5C52.1421 69.5 55.5 66.1421 55.5 62C55.5 57.8579 52.1421 54.5 48 54.5C43.8579 54.5 40.5 57.8579 40.5 62C40.5 66.1421 43.8579 69.5 48 69.5ZM48 70C52.4183 70 56 66.4183 56 62C56 57.5817 52.4183 54 48 54C43.5817 54 40 57.5817 40 62C40 66.4183 43.5817 70 48 70Z" fill="#E2954E"/>
<path fill-rule="evenodd" clip-rule="evenodd" d="M54 62C54 65.3137 51.3137 68 48 68C44.6863 68 42 65.3137 42 62C42 58.6863 44.6863 56 48 56C51.3137 56 54 58.6863 54 62ZM50.3957 65.8099C49.702 66.2471 48.8805 66.5 48 66.5C45.5147 66.5 43.5 64.4853 43.5 62C43.5 61.1194 43.7529 60.298 44.1901 59.6042L50.3957 65.8099ZM51.8099 64.3958L45.6043 58.1901C46.298 57.7529 47.1195 57.5 48 57.5C50.4853 57.5 52.5 59.5147 52.5 62C52.5 62.8806 52.2471 63.702 51.8099 64.3958Z" fill="#E2954E"/>
</svg>
