<svg width="95" height="95" viewBox="0 0 95 95" fill="none" xmlns="http://www.w3.org/2000/svg">
<path opacity="0.5" fill-rule="evenodd" clip-rule="evenodd" d="M49.6444 11.0201C65.293 11.6201 71.5923 28.9105 76.0308 43.5988C79.9684 56.6295 81.59 71.874 70.5106 80.0724C58.9334 88.6391 43.0056 85.076 31.2663 76.723C19.5546 68.3897 12.195 54.9606 16.0168 41.2977C20.4615 25.4074 32.8128 10.3747 49.6444 11.0201Z" fill="#16261F"/>
<path d="M41.2223 50.2049C37.5548 48.4713 33.3535 48.2467 29.5221 49.5793L25 51.5C25 51.5 23.5 57.7605 25 63.5L29.5007 61.5556C31.7023 60.5772 34.237 60.6982 36.3354 61.8819L46.1426 67.4141C50.1191 69.6573 54.9487 69.785 59.0382 67.755L69.4554 62.5839C71.2415 61.6974 71.9088 59.4874 70.9118 57.7605C70.0883 56.3342 68.3938 55.7094 66.8725 56.1943C65.9352 54.6499 63.9596 54.0851 62.3439 54.9124L62.2235 54.974C62.1485 54.7304 62.045 54.4912 61.9118 54.2605C60.9913 52.6662 58.9826 52.0734 57.3439 52.9124L52.3494 55.4696C52.2967 55.4413 52.243 55.4143 52.1883 55.3884L41.2223 50.2049Z" fill="#16261F"/>
<path fill-rule="evenodd" clip-rule="evenodd" d="M52.9999 59.5394C52.4504 60.8387 50.9383 61.43 49.6531 60.8481L36.5 55.0001C36.5 55.0001 35.8672 54.6329 35.5 55.0001C35.1328 55.3672 36.1801 55.8459 36.1801 55.8459L42.5014 58.7079L48.0813 62.2292C50.8366 63.7321 54.1568 63.7755 56.9505 62.3452L66.7996 57.3024C67.9641 56.7061 69.3916 57.1274 70.0457 58.2604C70.7542 59.4876 70.28 61.0581 69.0108 61.6882L58.5935 66.8592C54.8008 68.7419 50.3218 68.6235 46.6339 66.5431L36.8266 61.0108C34.4528 59.6717 31.5852 59.5348 29.0946 60.6417L24.2663 62.8767C24.104 62.9519 24 63.1145 24 63.2935C24 63.6258 24.3421 63.8481 24.6457 63.7131L29.5007 61.5555C31.7023 60.5771 34.237 60.6981 36.3353 61.8818L46.1425 67.4141C50.1191 69.6573 54.9486 69.7849 59.0381 67.7549L69.4554 62.5839C71.2415 61.6973 71.9087 59.4873 70.9117 57.7604C70.0882 56.3341 68.3938 55.7093 66.8725 56.1942C65.9352 54.6498 63.9596 54.085 62.3438 54.9122L62.2235 54.9747C62.1484 54.7308 62.0448 54.4913 61.9115 54.2604C60.991 52.6661 58.9823 52.0732 57.3437 52.9122L52.2096 55.3986C52.2025 55.3952 52.1954 55.3918 52.1883 55.3884L41.2222 50.2049C37.5548 48.4713 33.3534 48.2467 29.5221 49.5793L24.3191 51.389C24.1281 51.4554 24 51.6356 24 51.8379C24 52.1631 24.3193 52.3922 24.6274 52.2881L29.8506 50.5238C33.4344 49.2773 37.3644 49.4874 40.7949 51.109L51.7609 56.2925C52.9776 56.8676 53.5242 58.3 52.9999 59.5394ZM53.1468 56.0555C53.9641 56.8573 54.3467 58.0227 54.1467 59.1646L61.3148 55.4461C61.2615 55.2114 61.1725 54.9804 61.0455 54.7604C60.3914 53.6274 58.9639 53.2061 57.7994 53.8024L53.1468 56.0555ZM50.2261 62.042C51.5409 62.2172 52.8657 61.6288 53.6104 60.5073L62.7996 55.8024C63.9119 55.2329 65.264 55.5917 65.9531 56.6123L56.4947 61.4551C54.5377 62.4571 52.2919 62.6507 50.2261 62.042Z" fill="#E2954E"/>
<path d="M41.2057 28.1966C44.1347 25.2678 48.8834 25.2678 51.8123 28.1966L52.5173 28.9016L53.2222 28.1967C56.1512 25.2678 60.8999 25.2678 63.8288 28.1967C71.3451 35.7128 57.4486 45.4636 52.8123 50.3033C48.037 45.5719 33.513 35.8895 41.2057 28.1966Z" fill="#105C3C"/>
<path fill-rule="evenodd" clip-rule="evenodd" d="M51.1052 28.9037C48.5668 26.3654 44.4513 26.3654 41.9129 28.9037C40.2108 30.6058 39.7904 32.3297 40.0879 34.0616C40.3988 35.8714 41.5137 37.7884 43.106 39.7255C44.687 41.6488 46.6609 43.5004 48.5652 45.1861C49.1645 45.7166 49.7628 46.2355 50.3394 46.7355C51.2363 47.5134 52.0806 48.2456 52.794 48.9047C53.4916 48.2254 54.3154 47.4726 55.1883 46.675C55.7342 46.1761 56.2993 45.6597 56.8648 45.1328C58.6939 43.4283 60.5833 41.5644 62.0901 39.6376C63.6071 37.6978 64.6628 35.7852 64.9423 33.9875C65.2104 32.2632 64.7803 30.5623 63.1217 28.9039C60.5833 26.3654 56.4677 26.3654 53.9293 28.9038L52.5173 30.3157L51.1052 28.9037ZM53.3937 49.7166C53.1871 49.9193 52.9927 50.115 52.8123 50.3033C52.6288 50.1215 52.431 49.9324 52.2205 49.7364C51.5076 49.0724 50.6504 48.3291 49.7193 47.5217C43.7715 42.364 34.8098 34.5926 41.2057 28.1966C44.1347 25.2678 48.8834 25.2678 51.8123 28.1966L52.5173 28.9016L53.2222 28.1967C56.1512 25.2678 60.8999 25.2678 63.8288 28.1967C70.0672 34.4349 61.555 42.2125 55.8294 47.444C54.9249 48.2704 54.09 49.0333 53.3937 49.7166Z" fill="#E2954E"/>
<path fill-rule="evenodd" clip-rule="evenodd" d="M61.0552 32.5031C61.3297 32.5336 61.5275 32.7808 61.497 33.0553C61.3665 34.2292 61.0419 35.3671 60.5581 36.4445C60.4449 36.6964 60.149 36.8089 59.8971 36.6958C59.6452 36.5827 59.5327 36.2867 59.6458 36.0348C60.0904 35.045 60.385 34.0078 60.5031 32.9448C60.5336 32.6704 60.7808 32.4726 61.0552 32.5031ZM59.2726 37.7749C59.5041 37.9255 59.5697 38.2352 59.4191 38.4667C57.88 40.8329 55.8258 42.8877 53.2573 44.4288C53.0205 44.5709 52.7133 44.4941 52.5713 44.2573C52.4292 44.0205 52.506 43.7134 52.7428 43.5713C55.1742 42.1124 57.1201 40.1672 58.5809 37.9214C58.7315 37.6899 59.0412 37.6243 59.2726 37.7749Z" fill="#E2954E"/>
</svg>
