<svg width="95" height="95" viewBox="0 0 95 95" fill="none" xmlns="http://www.w3.org/2000/svg">
<path opacity="0.5" fill-rule="evenodd" clip-rule="evenodd" d="M47.0225 13.0023C62.6477 12.8693 79.7127 18.4907 84.1755 33.5502C88.4278 47.8992 75.4357 59.5461 63.446 68.4229C51.1073 77.5582 35.9462 87.2087 23.1524 78.73C9.0729 69.3991 5.97133 50.0947 11.7559 34.1666C16.9479 19.8699 31.8882 13.1311 47.0225 13.0023Z" fill="#16261F"/>
<path d="M53.5 42C53.5 54.4264 51.2614 64.5 48.5 64.5C45.7386 64.5 43.5 54.4264 43.5 42C43.5 29.5736 45.7386 19.5 48.5 19.5C51.2614 19.5 53.5 29.5736 53.5 42Z" fill="#16261F"/>
<path fill-rule="evenodd" clip-rule="evenodd" d="M48.9962 69.438C49.8607 69.2173 50.5 68.4333 50.5 67.5C50.5 66.3954 49.6046 65.5 48.5 65.5C47.3954 65.5 46.5 66.3954 46.5 67.5C46.5 68.4333 47.1393 69.2173 48.0038 69.438C48.0013 69.4583 48 69.479 48 69.5L47.9994 77.8729C47.9447 79.5854 46.7898 81 45 81C43.3821 81 42.2923 79.8666 42.0484 78.3396C42.0226 78.1779 42.0041 78.0144 42 77.8506L42 77.8478V74.4612L42.994 75.5725C43.1781 75.7783 43.4942 75.7959 43.7 75.6118C43.9058 75.4277 43.9234 75.1116 43.7393 74.9058L41 71.8432V77.8478C41 78 41 78.1158 41.0609 78.4973C41.3808 80.4996 42.8968 82 45 82C46.5011 82 47.8335 81.2839 48.5 79.9177C49.1665 81.2839 50.4989 82 52 82C54.1032 82 55.6192 80.4996 55.9391 78.4973C55.9923 78.164 56 78 56 77.8478V71.8432L53.2607 74.9058C53.0766 75.1116 53.0942 75.4277 53.3 75.6118C53.5058 75.7959 53.8219 75.7783 54.006 75.5725L55 74.4612V77.8478C54.9972 78.0125 54.9775 78.1771 54.9516 78.3396C54.6989 79.9214 53.6169 81 52 81C50.2028 81 49.0439 79.625 49 77.8506L49 77.8478V69.5C49 69.479 48.9987 69.4583 48.9962 69.438ZM49.5 67.5C49.5 68.0523 49.0523 68.5 48.5 68.5C47.9477 68.5 47.5 68.0523 47.5 67.5C47.5 66.9477 47.9477 66.5 48.5 66.5C49.0523 66.5 49.5 66.9477 49.5 67.5Z" fill="#E2954E"/>
<path fill-rule="evenodd" clip-rule="evenodd" d="M52.3234 27.5C52.5536 28.7279 52.7551 30.0682 52.9233 31.5H44.0767C44.2449 30.0682 44.4464 28.7279 44.6766 27.5H52.3234Z" fill="#A46010"/>
<path fill-rule="evenodd" clip-rule="evenodd" d="M53.2882 35.5C53.3744 36.7884 53.4357 38.1256 53.4695 39.5H43.5305C43.5643 38.1256 43.6256 36.7884 43.7118 35.5H53.2882Z" fill="#A46010"/>
<path fill-rule="evenodd" clip-rule="evenodd" d="M43.6504 47.5C43.5783 46.2074 43.531 44.8705 43.5109 43.5H53.4891C53.469 44.8705 53.4217 46.2074 53.3495 47.5H43.6504Z" fill="#A46010"/>
<path fill-rule="evenodd" clip-rule="evenodd" d="M44.4997 55.5C44.2927 54.2598 44.1135 52.9202 43.9662 51.5H53.0338C52.8866 52.9202 52.7074 54.2598 52.5004 55.5H44.4997Z" fill="#A46010"/>
<path fill-rule="evenodd" clip-rule="evenodd" d="M49 13.5C49 13.2239 48.7761 13 48.5 13C48.2239 13 48 13.2239 48 13.5L48 18.5C48 18.5191 48.0011 18.5379 48.0031 18.5563C42.9695 19.7202 42.5 38.5589 42.5 42C42.5 46.3715 43 65.5 48.5 65.5C54 65.5 54.5 46.0065 54.5 42C54.5 38.5589 54.0305 19.7202 48.9969 18.5563C48.9989 18.5379 49 18.5191 49 18.5L49 13.5ZM53.3203 48C53.257 49.0316 53.1778 50.0335 53.084 51H43.916C43.8222 50.0335 43.743 49.0316 43.6797 48H53.3203ZM48.5 64.5C50.0854 64.5 51.4984 61.1797 52.4144 56H44.5855C45.5016 61.1797 46.9146 64.5 48.5 64.5ZM44.4996 55.5H52.5004L53.0338 51.5H43.9662C44.1134 52.9201 44.2926 54.2598 44.4996 55.5ZM43.6505 47.5H53.3495C53.4217 46.2074 53.469 44.8705 53.4891 43.5H43.5109C43.5306 44.8417 43.5772 46.1682 43.6505 47.5ZM43.5048 43H53.4951C53.5049 42.0017 53.4998 40.9865 53.4805 40H43.5195C43.5002 40.9865 43.4951 42.0017 43.5048 43ZM44.0197 32C43.9134 32.9629 43.8219 33.9649 43.7467 35H53.2533C53.1781 33.9649 53.0866 32.9629 52.9803 32H44.0197ZM53.2882 35.5H43.7118C43.623 36.8319 43.5633 38.1656 43.5305 39.5H53.4695C53.4357 38.1256 53.3744 36.7884 53.2882 35.5ZM44.0767 31.5H52.9233C52.766 30.1605 52.5698 28.8145 52.3234 27.5H44.6766C44.4281 28.8255 44.2344 30.1608 44.0767 31.5ZM44.7732 27H52.2268C51.3113 22.3969 49.9808 19.5 48.5 19.5C47.0192 19.5 45.6887 22.3969 44.7732 27Z" fill="#E2954E"/>
</svg>
