<svg width="27" height="32" viewBox="0 0 27 32" fill="none" xmlns="http://www.w3.org/2000/svg">
<path fill-rule="evenodd" clip-rule="evenodd" d="M5.84772 18.2775C6.1793 18.3137 6.51534 18.3504 6.85416 18.3987C8.0119 18.5636 9.07622 19.0179 10.1414 19.4725C11.3079 19.9704 12.4755 20.4687 13.7679 20.588C13.6666 21.0506 13.5248 22.1147 13.7679 22.6699C13.6431 22.5794 13.5188 22.4886 13.3942 22.3976C11.9255 21.325 10.4152 20.222 7.61391 19.2771C7.61391 19.8705 7.9255 20.5524 8.29627 21.3639C8.84093 22.5559 9.5133 24.0275 9.5133 25.9084C9.5133 27.9708 7.53927 29.6593 6.05786 30.9264C5.58968 31.3268 5.17071 31.6852 4.87879 32C7.53793 31.8201 13.2057 31.121 14.9075 29.4554C15.9712 30.6892 21.0616 30.8434 22.1252 25.5229C23.0529 24.958 23.6243 24.4647 24.1765 23.8265C27.0636 24.1349 28.0513 23.3761 25.6433 21.452C26.3877 19.4002 26.0671 17.2382 25.7526 15.1171C25.6744 14.5894 25.5965 14.0642 25.5355 13.5438C25.4882 12.7003 25.6039 11.8692 26.2279 11.4892C24.7843 11.1807 24.7843 8.79036 25.772 8.2506C24.8603 8.17349 23.2838 6.9379 24.6514 5.70416C23.3598 5.78127 22.2962 4.6451 23.3489 3.25715C21.8403 3.7198 20.3018 3.39277 20.8336 0.925301C20.589 1.01559 20.3378 1.12076 20.0875 1.22555C18.6278 1.8367 17.1979 2.43539 17.2628 0C15.3786 1.29542 13.3121 3.36707 12.6283 4.24096C7.53793 5.55181 0.624172 9.1759 0.244294 10.4867C-0.0743176 11.5862 0.465316 11.9511 0.963339 12.2879C1.05909 12.3526 1.1533 12.4164 1.23958 12.484C1.81216 12.9333 2.21965 13.5879 2.21965 14.3422C1.45763 13.9232 -0.381725 14.3761 0.0923436 15.4988C0.201297 15.7568 0.472218 16.2648 1.44857 16.4241C2.66807 17.9301 4.203 18.0978 5.84772 18.2775ZM24.9829 12.0401C25.0342 11.8742 25.0988 11.7123 25.1787 11.5553C24.5746 11.2979 24.2088 9.70476 24.6139 8.86721C24.2598 9.14873 23.9578 9.41116 23.7012 9.65127C24.1754 10.3616 24.6075 11.1552 24.9829 12.0401ZM23.4111 9.23418C23.7693 9.05173 24.1843 8.8616 24.6606 8.67314C24.2128 8.93172 23.8353 9.16947 23.518 9.38398C23.4826 9.3336 23.447 9.28367 23.4111 9.23418ZM24.8019 8.53436C24.1864 8.7007 23.6702 8.85892 23.2404 9.0038C22.9682 8.64475 22.6848 8.30971 22.3927 7.99735C22.6771 7.57012 23.0799 7.03872 23.646 6.41549C23.3542 7.34388 24.2483 8.45665 24.8019 8.53436ZM23.7858 6.09143C22.8082 6.54022 22.0995 6.92089 21.5973 7.21964C21.3744 7.02049 21.1479 6.83279 20.9188 6.65602C21.2852 5.7514 21.8973 4.70361 22.5534 3.90653C22.0032 4.96425 22.8141 6.07711 23.7858 6.09143ZM23.5984 6.28466C22.8736 6.72416 22.3144 7.14001 21.8943 7.49389C21.9589 7.5555 22.0231 7.61811 22.087 7.68174C22.4348 7.31123 22.9221 6.8444 23.5984 6.28466ZM20.1457 1.97343C20.0083 3.81816 21.5245 4.20909 22.4945 3.88665C22.4136 3.95165 22.332 4.01698 22.25 4.08269C21.4953 4.68701 20.7008 5.3232 20.016 6.02205C19.5249 5.70922 19.0275 5.44151 18.5323 5.21424C18.7807 4.53495 19.2775 3.35822 20.1457 1.97343ZM21.9733 4.47229C21.2204 5.21469 20.7651 5.79084 20.4165 6.28832C20.4534 6.31396 20.4903 6.33986 20.5272 6.36604C20.8165 5.90861 21.2186 5.33452 21.9733 4.47229ZM20.0043 1.9266C18.8286 2.63803 16.8756 2.77571 16.7145 1.07837C16.0472 1.8506 15.2013 3.18191 14.6603 4.15849C15.4641 4.23456 16.3623 4.41221 17.2948 4.72458C17.677 4.24405 18.5255 3.25852 20.0043 1.9266ZM17.8523 4.92626C17.9047 4.94665 17.9572 4.96748 18.0098 4.98875C18.3045 4.45514 18.9035 3.46284 19.9418 2.10252C18.8912 3.26963 18.2161 4.30363 17.8523 4.92626ZM14.0579 4.11933C14.4007 3.67491 15.1575 2.72276 16.342 1.3833C15.3777 2.19927 14.5177 3.13545 13.7127 4.11391C13.8249 4.11351 13.94 4.11528 14.0579 4.11933ZM19.6244 19.7079C20.3651 19.7692 21.3547 19.7825 22.5068 19.6285C21.6802 19.9208 20.8256 20.0794 20.114 20.1651C20.8412 20.3115 21.814 20.4244 22.9609 20.3566C21.9439 20.634 20.9057 20.677 20.13 20.6521C20.9486 20.8416 22.1986 21.0286 23.6447 20.8964C22.7611 21.1681 21.8097 21.2465 21.026 21.2499C21.7467 21.4278 22.6997 21.5954 23.7207 21.5904C23.0527 21.7338 22.2945 21.7636 21.6221 21.7474C22.3976 21.9677 23.6416 22.2676 24.9363 22.3614C24.1218 22.5337 23.2619 22.5213 22.5595 22.4548C23.7601 22.8875 24.9552 23.079 25.848 22.9783C25.479 22.3541 22.7804 19.7172 22.3056 19.2973C21.9021 18.9403 21.3596 18.7908 20.8336 18.8916L19.4644 19.1791C19.9392 19.2489 20.6628 19.2676 21.7453 19.1229C20.9874 19.3909 20.2472 19.5786 19.6244 19.7079ZM2.00983 12.0289L2.01471 12.0328C2.77418 12.6426 3.2437 13.0196 3.44631 14.6506C4.19502 14.8048 4.72684 14.6506 4.72684 14.6506C4.28067 13.2016 3.10745 11.2973 1.44857 11.1807C3.40659 11.2161 4.43916 12.9929 5.18272 14.579C5.41781 15.0804 5.80684 15.9103 6.3983 15.653C7.11689 15.3405 6.37529 14.2702 6.09347 13.9263C5.97797 13.7854 5.86019 13.638 5.73966 13.4871C4.90425 12.4415 3.93678 11.2306 2.68053 10.8621C1.77236 10.5956 1.12827 10.4067 1.02784 10.6643C0.916717 10.9494 1.14974 11.3383 2.00983 12.0289ZM22.8489 23.2096C21.178 22.8148 19.8348 22.1403 18.1759 20.3878C17.6276 19.8086 17.9957 18.9234 18.7063 18.7873L20.7368 18.3985C21.4915 18.2539 22.2699 18.4684 22.8489 18.9805L24.8603 20.9735C24.8603 20.9735 23.9486 19.6628 23.1129 18.8916C22.9609 17.7349 22.4291 14.7277 20.5297 12.8C18.6303 10.8723 17.0858 10.1956 14.1478 9.79277C14.1478 9.79277 13.3941 8.79036 11.4887 8.17349C11.4887 8.17349 13.1601 8.86747 13.616 9.79277C14.0718 10.7181 12.7043 13.494 12.7043 13.494C12.7043 13.494 16.655 13.4334 18.3264 13.9263C19.493 14.2704 20.2258 15.0361 19.542 15.653C18.8583 16.2699 16.579 17.4265 15.2874 17.4265C14.2001 17.4265 13.382 16.6067 13.1504 16.3475L13.1472 16.3487L13.1453 16.3494L13.1436 16.35L13.1434 16.3396C13.1045 16.2957 13.0841 16.2699 13.0841 16.2699C13.0841 16.2699 12.8562 16.6554 11.9445 16.5783C11.9445 16.5783 13.0082 16.1928 13.0841 15.2675C13.1601 14.3422 12.5003 13.9263 12.5003 13.9263C11.5677 15.7799 10.0313 17.2632 7.84184 17.041C7.08208 16.9639 6.24635 16.347 6.24635 16.347C7.22726 16.418 8.06976 15.9072 8.06976 14.8819C10.553 15.6646 10.2385 11.1385 10.0451 9.94699C10.9568 11.7205 10.349 14.4193 10.349 14.4193C12.1766 12.6804 12.888 10.985 13.1285 10.2504C13.2036 10.0213 13.113 9.7783 12.9212 9.63553L12.0965 9.02169L12.3086 9.36612C12.3761 9.47584 12.2875 9.62658 12.1603 9.63365C11.8486 9.65094 11.3735 9.73919 11.0507 10.0863C10.8998 10.2487 10.6297 10.309 10.4742 10.1511L9.96915 9.63855C9.96915 9.63855 8.67756 9.63365 7.89407 10.1511C7.81809 10.4596 7.64715 10.5639 7.64715 10.5639C7.72312 10.1783 7.53793 10.0241 7.53793 10.0241C7.46196 10.3325 7.15735 10.7954 6.7022 10.9494C7.08208 10.6512 7.15806 10.3325 7.15806 10.1012C7.15806 9.54759 6.71586 9.09879 6.17038 9.09879C5.71438 9.09879 4.95477 9.48434 5.10672 10.3325C5.10672 10.3325 4.87879 10.1783 4.87879 9.79277L3.28331 10.5639C4.57489 11.1807 6.62623 13.8024 6.93013 14.2651C7.23403 14.7277 7.46196 15.4988 6.7022 16.0386C5.94245 16.5783 5.03075 15.2675 5.03075 15.2675C4.01177 15.5495 3.00999 15.3988 2.00983 15.1214C1.20519 14.8982 0.981339 14.8982 0.916717 15.1214C0.606175 16.194 4.22241 15.9404 4.65087 15.8843C3.66319 16.4241 2.44758 16.347 2.44758 16.347C3.90484 17.26 4.71168 17.3576 6.08329 17.5235C6.32941 17.5532 6.59372 17.5852 6.88323 17.6244C10.1971 17.812 11.1848 16.9639 11.1848 16.9639C11.1848 16.9639 10.7289 17.6244 8.64686 18.0234C9.30962 18.2424 9.8435 18.5118 10.2471 18.7154C10.3749 18.7799 10.0451 18.0234 10.0451 18.0234C10.9467 19.0528 12.1819 19.5101 13.4667 19.7392C14.8903 19.993 16.1862 20.3961 17.1868 21.5133C18.1759 22.6174 19.0102 23.2096 19.0102 23.2096C19.0102 23.2096 18.9342 24.2892 17.5667 25.0602C16.1991 25.8313 15.4394 25.6 15.4394 25.6C15.4394 25.6 16.1991 24.6747 16.2751 24.2892C16.3074 24.1254 16.2848 23.9617 16.2598 23.7803C16.226 23.5344 16.1877 23.2561 16.2751 22.9012C16.4271 22.2843 16.8069 21.7446 16.8069 21.7446C16.8069 21.7446 16.6992 21.6352 16.1663 21.3245C16.1572 21.4814 16.1771 21.7323 16.2751 22.1301C16.0522 21.8392 15.936 21.5754 15.8763 21.3671C15.8571 21.6657 15.8948 22.1672 16.1232 22.9783C15.8442 22.5064 15.679 22.0473 15.5812 21.6692C15.6001 22.1561 15.6964 22.8041 15.9712 23.5952C15.5285 22.8564 15.3308 22.0987 15.2425 21.5754C15.2331 22.2058 15.3169 23.0967 15.6673 24.2121C15.262 23.4827 15.0218 22.6841 14.8801 22.0227C14.9044 22.7574 15.0275 23.7012 15.3634 24.8289C14.816 23.8042 14.5548 22.7478 14.4304 21.9543C14.4096 22.7184 14.523 23.464 14.6359 24.2065C14.8066 25.3289 14.9761 26.4441 14.6796 27.6048C14.6796 27.6048 14.0113 28.1119 10.8809 27.759C12.887 27.6393 13.9132 27.235 14.3915 26.9601C13.9709 26.9806 13.086 26.9624 11.2607 26.7566C12.767 26.6667 13.6329 26.5383 14.1259 26.4294C13.6779 26.2677 12.8695 26.0726 11.4127 25.9084C12.8017 25.8255 13.6312 25.847 14.1242 25.8965C13.6457 25.63 12.7698 25.316 11.1848 25.1373C12.3777 25.0661 13.1469 25.094 13.6421 25.1557C13.1133 24.7577 12.352 24.4122 11.2607 24.2892C12.245 24.2304 12.9559 24.3763 13.4679 24.604C12.8465 24.0642 11.9843 23.5916 10.8226 23.4794C11.8398 23.3984 12.6228 23.6186 13.2143 23.9472C12.5648 23.3977 11.673 22.9135 10.4855 22.7797C11.2892 22.7317 11.954 22.8599 12.4984 23.077C11.7495 22.5805 10.7774 22.0959 9.53111 21.7312C10.4099 21.8047 11.1487 21.99 11.766 22.2326C10.8555 21.5679 9.86575 20.9975 8.7552 20.5296C9.50685 22.2405 10.2731 23.9985 10.2731 25.9084C10.2731 28.055 8.63283 29.6963 7.13682 31.0077C7.47266 30.9663 7.81574 30.9282 8.16193 30.8897C9.70635 30.7181 11.3129 30.5395 12.6167 30.0367C11.7747 30.1997 10.6704 30.297 9.36134 30.1494C10.9028 30.0574 12.1604 29.7381 13.04 29.4378C12.4462 29.48 11.525 29.4768 10.1971 29.3012C12.8926 29.2056 14.561 28.3 14.561 28.3C14.6172 28.482 14.4763 28.7162 14.3125 28.9124C14.519 28.8075 14.729 28.7031 14.9406 28.5979C17.2146 27.4675 19.6766 26.2435 20.0739 23.3639C20.0739 26.6795 15.7433 29.1825 15.7433 29.1825C16.0729 29.4244 16.4242 29.5676 16.7847 29.6261C17.0533 29.4673 17.8579 28.8877 18.5377 27.3331C18.3541 28.2175 17.9836 28.938 17.689 29.4054C18.0535 29.081 18.7264 28.3236 19.2386 26.8337C19.121 27.773 18.803 28.568 18.5325 29.1042C18.8917 28.6854 19.513 27.7565 19.8606 26.0627C19.8652 27.1693 19.5908 28.1094 19.3487 28.722C19.6055 28.3839 20.3271 27.2437 20.4434 24.9831C20.6115 26.0581 20.5127 27.0255 20.3739 27.7192C21.0704 26.7847 21.0117 25.1124 20.9276 24.0286C21.1532 24.8013 21.2262 25.5348 21.2292 26.1501C21.7326 24.7923 21.5456 22.9798 19.9219 22.5157C21.9428 22.6699 22.1252 24.3663 22.1252 24.3663C22.6143 24.0117 22.7179 23.6572 22.8214 23.3026C22.8305 23.2716 22.8395 23.2406 22.8489 23.2096ZM14.0342 16.5222C13.932 16.4382 13.8404 16.3429 13.7617 16.2385C14.2255 16.2042 14.9557 16.2317 15.9712 16.5012C15.4157 16.1911 14.8868 16.0242 14.4393 15.9372C15.0106 15.8893 15.774 15.893 16.731 16.0386C15.7722 15.703 14.9791 15.5862 14.3891 15.5613C15.1225 15.4606 16.1569 15.4134 17.4907 15.5759C16.191 15.3149 15.2281 15.2075 14.5418 15.1722C15.3491 15.0464 16.4858 14.9708 17.9466 15.1133C16.4108 14.7508 15.26 14.6691 14.4716 14.6844C15.3836 14.552 16.8076 14.4835 18.7063 14.8048C16.7551 14.186 14.4397 14.0638 13.6014 14.0397C13.6061 14.0374 13.611 14.0354 13.616 14.0337C14.2997 13.8024 19.2291 14.0337 19.3141 14.959C19.3798 15.6731 16.685 16.6151 15.4511 17.008C15.0738 17.1281 14.6661 17.0421 14.359 16.7894L14.0342 16.5222ZM7.61391 16.5783C8.62692 16.7839 11.1088 16.1928 12.1724 12.9542C10.6529 15.3446 8.88017 15.3703 8.44964 15.3446C8.44964 15.3446 8.44964 15.4288 8.41434 15.5613C9.5133 15.8072 11.1848 14.6506 11.1848 14.6506C11.1848 14.6506 10.1211 15.9614 8.28392 15.8843C8.2468 15.9524 8.20136 16.0238 8.14574 16.0968C8.64686 16.35 9.89317 15.8843 9.89317 15.8843C9.89317 15.8843 9.05744 16.5222 7.84184 16.4114C7.77377 16.468 7.69808 16.524 7.61391 16.5783Z" fill="white"/>
<path d="M6.0944 9.63855C6.0944 9.85148 5.92433 10.0241 5.71453 10.0241C5.63547 10.0241 5.56205 9.99959 5.50125 9.95764C5.49165 10.004 5.4866 10.052 5.4866 10.1012C5.4866 10.4845 5.79274 10.7952 6.17038 10.7952C6.54802 10.7952 6.85416 10.4845 6.85416 10.1012C6.85416 9.71793 6.54802 9.40723 6.17038 9.40723C6.12188 9.40723 6.07457 9.41235 6.02893 9.4221C6.07025 9.4838 6.0944 9.55832 6.0944 9.63855Z" fill="white"/>
</svg>
